<mxfile host="app.diagrams.net" modified="2024-05-28T06:01:14.482Z" agent="Mozilla/5.0 (Macintosh; Intel Mac OS X 10_15_7) AppleWebKit/537.36 (KHTML, like Gecko) Chrome/125.0.0.0 Safari/537.36" etag="agB-TjsEFxbRqCJ83bl1" version="24.4.9" type="github">
  <diagram name="Page-1" id="a4_HoGT8hgg08NZf-DyA">
    <mxGraphModel dx="1272" dy="699" grid="1" gridSize="10" guides="1" tooltips="1" connect="1" arrows="1" fold="1" page="1" pageScale="1" pageWidth="827" pageHeight="1169" math="0" shadow="0">
      <root>
        <mxCell id="0" />
        <mxCell id="1" parent="0" />
        <mxCell id="m5UDrv521vRG6zLzDft7-1" value="Book" style="swimlane;childLayout=stackLayout;horizontal=1;startSize=50;horizontalStack=0;rounded=1;fontSize=14;fontStyle=0;strokeWidth=2;resizeParent=0;resizeLast=1;shadow=0;dashed=0;align=center;arcSize=4;whiteSpace=wrap;html=1;labelBackgroundColor=none;fillColor=#B2C9AB;strokeColor=#788AA3;fontColor=#46495D;" vertex="1" parent="1">
          <mxGeometry x="444" y="585" width="160" height="120" as="geometry" />
        </mxCell>
        <mxCell id="m5UDrv521vRG6zLzDft7-2" value="+&lt;b&gt;ISBN (Primary key)&lt;br&gt;&lt;/b&gt;+Title&lt;br&gt;+Author&lt;div&gt;+Publication year&lt;/div&gt;" style="align=left;strokeColor=none;fillColor=none;spacingLeft=4;fontSize=12;verticalAlign=top;resizable=0;rotatable=0;part=1;html=1;labelBackgroundColor=none;fontColor=#46495D;" vertex="1" parent="m5UDrv521vRG6zLzDft7-1">
          <mxGeometry y="50" width="160" height="70" as="geometry" />
        </mxCell>
        <mxCell id="m5UDrv521vRG6zLzDft7-3" value="Members" style="swimlane;childLayout=stackLayout;horizontal=1;startSize=50;horizontalStack=0;rounded=1;fontSize=14;fontStyle=0;strokeWidth=2;resizeParent=0;resizeLast=1;shadow=0;dashed=0;align=center;arcSize=4;whiteSpace=wrap;html=1;labelBackgroundColor=none;fillColor=#B2C9AB;strokeColor=#788AA3;fontColor=#46495D;" vertex="1" parent="1">
          <mxGeometry x="44" y="585" width="160" height="140" as="geometry" />
        </mxCell>
        <mxCell id="m5UDrv521vRG6zLzDft7-4" value="+&lt;b&gt;MemberID (Primary key)&lt;/b&gt;&lt;div&gt;+Name&lt;/div&gt;&lt;div&gt;&lt;span style=&quot;background-color: initial;&quot;&gt;+Address&lt;/span&gt;&lt;/div&gt;&lt;div&gt;+Mobile&lt;/div&gt;&lt;div&gt;+Email&lt;/div&gt;" style="align=left;strokeColor=none;fillColor=none;spacingLeft=4;fontSize=12;verticalAlign=top;resizable=0;rotatable=0;part=1;html=1;labelBackgroundColor=none;fontColor=#46495D;" vertex="1" parent="m5UDrv521vRG6zLzDft7-3">
          <mxGeometry y="50" width="160" height="90" as="geometry" />
        </mxCell>
        <mxCell id="m5UDrv521vRG6zLzDft7-5" value="Loans" style="swimlane;childLayout=stackLayout;horizontal=1;startSize=50;horizontalStack=0;rounded=1;fontSize=14;fontStyle=0;strokeWidth=2;resizeParent=0;resizeLast=1;shadow=0;dashed=0;align=center;arcSize=4;whiteSpace=wrap;html=1;labelBackgroundColor=none;fillColor=#B2C9AB;strokeColor=#788AA3;fontColor=#46495D;" vertex="1" parent="1">
          <mxGeometry x="230.5" y="775" width="187" height="140" as="geometry" />
        </mxCell>
        <mxCell id="m5UDrv521vRG6zLzDft7-6" value="+&lt;b&gt;ISBN (CK) (Foreign key)&lt;/b&gt;&lt;div&gt;+&lt;b&gt;MemberID (CK)&amp;nbsp; (Foreign key)&lt;/b&gt;&lt;br&gt;&lt;div&gt;&lt;b&gt;+Loan date (CK)&lt;/b&gt;&lt;div&gt;+Return date&lt;/div&gt;&lt;div&gt;+EmployeeID&lt;/div&gt;&lt;div&gt;&lt;br&gt;&lt;/div&gt;&lt;/div&gt;&lt;/div&gt;" style="align=left;strokeColor=none;fillColor=none;spacingLeft=4;fontSize=12;verticalAlign=top;resizable=0;rotatable=0;part=1;html=1;labelBackgroundColor=none;fontColor=#46495D;" vertex="1" parent="m5UDrv521vRG6zLzDft7-5">
          <mxGeometry y="50" width="187" height="90" as="geometry" />
        </mxCell>
        <mxCell id="m5UDrv521vRG6zLzDft7-7" value="Librarians" style="swimlane;childLayout=stackLayout;horizontal=1;startSize=50;horizontalStack=0;rounded=1;fontSize=14;fontStyle=0;strokeWidth=2;resizeParent=0;resizeLast=1;shadow=0;dashed=0;align=center;arcSize=4;whiteSpace=wrap;html=1;labelBackgroundColor=none;fillColor=#B2C9AB;strokeColor=#788AA3;fontColor=#46495D;" vertex="1" parent="1">
          <mxGeometry x="644" y="695" width="160" height="120" as="geometry" />
        </mxCell>
        <mxCell id="m5UDrv521vRG6zLzDft7-8" value="+EmployeeID&lt;div&gt;+Name&lt;/div&gt;&lt;div&gt;+Adress&lt;/div&gt;&lt;div&gt;+Mobile&lt;/div&gt;" style="align=left;strokeColor=none;fillColor=none;spacingLeft=4;fontSize=12;verticalAlign=top;resizable=0;rotatable=0;part=1;html=1;labelBackgroundColor=none;fontColor=#46495D;" vertex="1" parent="m5UDrv521vRG6zLzDft7-7">
          <mxGeometry y="50" width="160" height="70" as="geometry" />
        </mxCell>
        <mxCell id="m5UDrv521vRG6zLzDft7-9" value="" style="edgeStyle=entityRelationEdgeStyle;fontSize=12;html=1;endArrow=ERzeroToMany;startArrow=ERmandOne;rounded=0;entryX=-0.012;entryY=0.386;entryDx=0;entryDy=0;entryPerimeter=0;labelBackgroundColor=none;strokeColor=#788AA3;fontColor=default;" edge="1" parent="1" source="m5UDrv521vRG6zLzDft7-4" target="m5UDrv521vRG6zLzDft7-6">
          <mxGeometry width="100" height="100" relative="1" as="geometry">
            <mxPoint x="304" y="885" as="sourcePoint" />
            <mxPoint x="404" y="785" as="targetPoint" />
          </mxGeometry>
        </mxCell>
        <mxCell id="m5UDrv521vRG6zLzDft7-10" value="" style="edgeStyle=entityRelationEdgeStyle;fontSize=12;html=1;endArrow=ERzeroToMany;startArrow=ERmandOne;rounded=0;exitX=-0.025;exitY=0.371;exitDx=0;exitDy=0;exitPerimeter=0;entryX=1.019;entryY=0.371;entryDx=0;entryDy=0;entryPerimeter=0;labelBackgroundColor=none;strokeColor=#788AA3;fontColor=default;" edge="1" parent="1" source="m5UDrv521vRG6zLzDft7-2" target="m5UDrv521vRG6zLzDft7-6">
          <mxGeometry width="100" height="100" relative="1" as="geometry">
            <mxPoint x="504" y="689.99" as="sourcePoint" />
            <mxPoint x="404" y="785" as="targetPoint" />
            <Array as="points">
              <mxPoint x="434" y="655" />
              <mxPoint x="434" y="665" />
              <mxPoint x="444" y="665" />
            </Array>
          </mxGeometry>
        </mxCell>
        <mxCell id="m5UDrv521vRG6zLzDft7-11" value="" style="edgeStyle=entityRelationEdgeStyle;fontSize=12;html=1;endArrow=ERzeroToMany;startArrow=ERmandOne;rounded=0;entryX=1;entryY=0.75;entryDx=0;entryDy=0;labelBackgroundColor=none;strokeColor=#788AA3;fontColor=default;" edge="1" parent="1" source="m5UDrv521vRG6zLzDft7-8" target="m5UDrv521vRG6zLzDft7-6">
          <mxGeometry width="100" height="100" relative="1" as="geometry">
            <mxPoint x="644" y="905" as="sourcePoint" />
            <mxPoint x="494" y="965" as="targetPoint" />
          </mxGeometry>
        </mxCell>
        <mxCell id="m5UDrv521vRG6zLzDft7-12" value="Loans" style="swimlane;fontStyle=1;align=center;verticalAlign=top;childLayout=stackLayout;horizontal=1;startSize=26;horizontalStack=0;resizeParent=1;resizeParentMax=0;resizeLast=0;collapsible=1;marginBottom=0;whiteSpace=wrap;html=1;strokeColor=#788AA3;fontColor=#46495D;fillColor=#B2C9AB;" vertex="1" parent="1">
          <mxGeometry x="344" y="90" width="160" height="164" as="geometry" />
        </mxCell>
        <mxCell id="m5UDrv521vRG6zLzDft7-13" value="&lt;div&gt;&lt;span style=&quot;background-color: initial;&quot;&gt;+isbn: string&lt;/span&gt;&lt;/div&gt;&lt;div&gt;&lt;span style=&quot;background-color: initial;&quot;&gt;+member_id: integer&lt;/span&gt;&lt;div&gt;&lt;span style=&quot;background-color: initial;&quot;&gt;+load_date: date/time&lt;/span&gt;&lt;div&gt;&lt;div&gt;+return_date: date/time&lt;/div&gt;&lt;div&gt;+employee_id: stirng&lt;/div&gt;&lt;div&gt;&lt;br style=&quot;text-wrap: nowrap;&quot;&gt;&lt;/div&gt;&lt;/div&gt;&lt;/div&gt;&lt;/div&gt;" style="text;strokeColor=none;fillColor=none;align=left;verticalAlign=top;spacingLeft=4;spacingRight=4;overflow=hidden;rotatable=0;points=[[0,0.5],[1,0.5]];portConstraint=eastwest;whiteSpace=wrap;html=1;fontColor=#46495D;" vertex="1" parent="m5UDrv521vRG6zLzDft7-12">
          <mxGeometry y="26" width="160" height="104" as="geometry" />
        </mxCell>
        <mxCell id="m5UDrv521vRG6zLzDft7-14" value="" style="line;strokeWidth=1;fillColor=none;align=left;verticalAlign=middle;spacingTop=-1;spacingLeft=3;spacingRight=3;rotatable=0;labelPosition=right;points=[];portConstraint=eastwest;strokeColor=inherit;fontColor=#46495D;" vertex="1" parent="m5UDrv521vRG6zLzDft7-12">
          <mxGeometry y="130" width="160" height="8" as="geometry" />
        </mxCell>
        <mxCell id="m5UDrv521vRG6zLzDft7-15" value="+ method(type): type" style="text;strokeColor=none;fillColor=none;align=left;verticalAlign=top;spacingLeft=4;spacingRight=4;overflow=hidden;rotatable=0;points=[[0,0.5],[1,0.5]];portConstraint=eastwest;whiteSpace=wrap;html=1;fontColor=#46495D;" vertex="1" parent="m5UDrv521vRG6zLzDft7-12">
          <mxGeometry y="138" width="160" height="26" as="geometry" />
        </mxCell>
        <mxCell id="m5UDrv521vRG6zLzDft7-16" value="Librarians&lt;div&gt;&lt;br&gt;&lt;/div&gt;" style="swimlane;fontStyle=1;align=center;verticalAlign=top;childLayout=stackLayout;horizontal=1;startSize=26;horizontalStack=0;resizeParent=1;resizeParentMax=0;resizeLast=0;collapsible=1;marginBottom=0;whiteSpace=wrap;html=1;strokeColor=#788AA3;fontColor=#46495D;fillColor=#B2C9AB;" vertex="1" parent="1">
          <mxGeometry x="344" y="330" width="160" height="164" as="geometry" />
        </mxCell>
        <mxCell id="m5UDrv521vRG6zLzDft7-17" value="&lt;span style=&quot;text-wrap: nowrap;&quot;&gt;+employee_id: integer&lt;/span&gt;&lt;div style=&quot;text-wrap: nowrap;&quot;&gt;+employee_name: string&lt;/div&gt;&lt;div style=&quot;text-wrap: nowrap;&quot;&gt;+employee_ address: string&lt;/div&gt;&lt;div style=&quot;text-wrap: nowrap;&quot;&gt;+employee_mobile: string&lt;/div&gt;" style="text;strokeColor=none;fillColor=none;align=left;verticalAlign=top;spacingLeft=4;spacingRight=4;overflow=hidden;rotatable=0;points=[[0,0.5],[1,0.5]];portConstraint=eastwest;whiteSpace=wrap;html=1;fontColor=#46495D;" vertex="1" parent="m5UDrv521vRG6zLzDft7-16">
          <mxGeometry y="26" width="160" height="104" as="geometry" />
        </mxCell>
        <mxCell id="m5UDrv521vRG6zLzDft7-18" value="" style="line;strokeWidth=1;fillColor=none;align=left;verticalAlign=middle;spacingTop=-1;spacingLeft=3;spacingRight=3;rotatable=0;labelPosition=right;points=[];portConstraint=eastwest;strokeColor=inherit;fontColor=#46495D;" vertex="1" parent="m5UDrv521vRG6zLzDft7-16">
          <mxGeometry y="130" width="160" height="8" as="geometry" />
        </mxCell>
        <mxCell id="m5UDrv521vRG6zLzDft7-19" value="+ method(type): type" style="text;strokeColor=none;fillColor=none;align=left;verticalAlign=top;spacingLeft=4;spacingRight=4;overflow=hidden;rotatable=0;points=[[0,0.5],[1,0.5]];portConstraint=eastwest;whiteSpace=wrap;html=1;fontColor=#46495D;" vertex="1" parent="m5UDrv521vRG6zLzDft7-16">
          <mxGeometry y="138" width="160" height="26" as="geometry" />
        </mxCell>
        <mxCell id="m5UDrv521vRG6zLzDft7-20" value="Book" style="swimlane;fontStyle=1;align=center;verticalAlign=top;childLayout=stackLayout;horizontal=1;startSize=26;horizontalStack=0;resizeParent=1;resizeParentMax=0;resizeLast=0;collapsible=1;marginBottom=0;whiteSpace=wrap;html=1;strokeColor=#788AA3;fontColor=#46495D;fillColor=#B2C9AB;" vertex="1" parent="1">
          <mxGeometry x="594.21" y="90" width="160" height="170" as="geometry" />
        </mxCell>
        <mxCell id="m5UDrv521vRG6zLzDft7-21" value="&lt;span style=&quot;text-wrap: nowrap;&quot;&gt;+isbn: string&lt;/span&gt;&lt;span style=&quot;text-wrap: nowrap;&quot;&gt;&lt;br&gt;&lt;/span&gt;&lt;span style=&quot;text-wrap: nowrap;&quot;&gt;+book_title: string&lt;/span&gt;&lt;br style=&quot;text-wrap: nowrap;&quot;&gt;&lt;span style=&quot;text-wrap: nowrap;&quot;&gt;+book_author: string&lt;/span&gt;&lt;div style=&quot;text-wrap: nowrap;&quot;&gt;+book_genre: string&lt;/div&gt;" style="text;strokeColor=none;fillColor=none;align=left;verticalAlign=top;spacingLeft=4;spacingRight=4;overflow=hidden;rotatable=0;points=[[0,0.5],[1,0.5]];portConstraint=eastwest;whiteSpace=wrap;html=1;fontColor=#46495D;" vertex="1" parent="m5UDrv521vRG6zLzDft7-20">
          <mxGeometry y="26" width="160" height="104" as="geometry" />
        </mxCell>
        <mxCell id="m5UDrv521vRG6zLzDft7-22" value="" style="line;strokeWidth=1;fillColor=none;align=left;verticalAlign=middle;spacingTop=-1;spacingLeft=3;spacingRight=3;rotatable=0;labelPosition=right;points=[];portConstraint=eastwest;strokeColor=inherit;fontColor=#46495D;" vertex="1" parent="m5UDrv521vRG6zLzDft7-20">
          <mxGeometry y="130" width="160" height="8" as="geometry" />
        </mxCell>
        <mxCell id="m5UDrv521vRG6zLzDft7-23" value="+ method(type): type" style="text;strokeColor=none;fillColor=none;align=left;verticalAlign=top;spacingLeft=4;spacingRight=4;overflow=hidden;rotatable=0;points=[[0,0.5],[1,0.5]];portConstraint=eastwest;whiteSpace=wrap;html=1;fontColor=#46495D;" vertex="1" parent="m5UDrv521vRG6zLzDft7-20">
          <mxGeometry y="138" width="160" height="32" as="geometry" />
        </mxCell>
        <mxCell id="m5UDrv521vRG6zLzDft7-24" value="Members" style="swimlane;fontStyle=1;align=center;verticalAlign=top;childLayout=stackLayout;horizontal=1;startSize=26;horizontalStack=0;resizeParent=1;resizeParentMax=0;resizeLast=0;collapsible=1;marginBottom=0;whiteSpace=wrap;html=1;strokeColor=#788AA3;fontColor=#46495D;fillColor=#B2C9AB;" vertex="1" parent="1">
          <mxGeometry x="100" y="90" width="160" height="164" as="geometry" />
        </mxCell>
        <mxCell id="m5UDrv521vRG6zLzDft7-25" value="&lt;div&gt;&lt;span style=&quot;background-color: initial; text-wrap: nowrap;&quot;&gt;+member_id: integer&lt;/span&gt;&lt;span style=&quot;background-color: initial; text-wrap: nowrap;&quot;&gt;&amp;nbsp;&lt;/span&gt;&lt;/div&gt;&lt;div style=&quot;text-wrap: nowrap;&quot;&gt;+member_name: string&lt;/div&gt;&lt;div style=&quot;text-wrap: nowrap;&quot;&gt;&lt;span style=&quot;background-color: initial;&quot;&gt;+member_address: string&lt;/span&gt;&lt;/div&gt;&lt;div style=&quot;text-wrap: nowrap;&quot;&gt;+member_mobile: string&lt;/div&gt;&lt;div style=&quot;text-wrap: nowrap;&quot;&gt;+member_email: string&lt;/div&gt;" style="text;strokeColor=none;fillColor=none;align=left;verticalAlign=top;spacingLeft=4;spacingRight=4;overflow=hidden;rotatable=0;points=[[0,0.5],[1,0.5]];portConstraint=eastwest;whiteSpace=wrap;html=1;fontColor=#46495D;" vertex="1" parent="m5UDrv521vRG6zLzDft7-24">
          <mxGeometry y="26" width="160" height="104" as="geometry" />
        </mxCell>
        <mxCell id="m5UDrv521vRG6zLzDft7-26" value="" style="line;strokeWidth=1;fillColor=none;align=left;verticalAlign=middle;spacingTop=-1;spacingLeft=3;spacingRight=3;rotatable=0;labelPosition=right;points=[];portConstraint=eastwest;strokeColor=inherit;fontColor=#46495D;" vertex="1" parent="m5UDrv521vRG6zLzDft7-24">
          <mxGeometry y="130" width="160" height="8" as="geometry" />
        </mxCell>
        <mxCell id="m5UDrv521vRG6zLzDft7-27" value="+ method(type): type" style="text;strokeColor=none;fillColor=none;align=left;verticalAlign=top;spacingLeft=4;spacingRight=4;overflow=hidden;rotatable=0;points=[[0,0.5],[1,0.5]];portConstraint=eastwest;whiteSpace=wrap;html=1;fontColor=#46495D;" vertex="1" parent="m5UDrv521vRG6zLzDft7-24">
          <mxGeometry y="138" width="160" height="26" as="geometry" />
        </mxCell>
        <mxCell id="m5UDrv521vRG6zLzDft7-28" value="" style="endArrow=open;endFill=1;endSize=11;html=1;rounded=0;entryX=1;entryY=0.5;entryDx=0;entryDy=0;exitX=0;exitY=0.5;exitDx=0;exitDy=0;startArrow=ERmany;startFill=0;startSize=7;" edge="1" parent="1" source="m5UDrv521vRG6zLzDft7-13" target="m5UDrv521vRG6zLzDft7-25">
          <mxGeometry width="160" relative="1" as="geometry">
            <mxPoint x="424" y="290" as="sourcePoint" />
            <mxPoint x="584" y="290" as="targetPoint" />
          </mxGeometry>
        </mxCell>
        <mxCell id="m5UDrv521vRG6zLzDft7-29" value="" style="endArrow=open;endFill=1;endSize=8;html=1;rounded=0;startArrow=ERmany;startFill=0;exitX=1;exitY=0.5;exitDx=0;exitDy=0;" edge="1" parent="1" source="m5UDrv521vRG6zLzDft7-13">
          <mxGeometry width="160" relative="1" as="geometry">
            <mxPoint x="510" y="170" as="sourcePoint" />
            <mxPoint x="594" y="170" as="targetPoint" />
          </mxGeometry>
        </mxCell>
        <mxCell id="m5UDrv521vRG6zLzDft7-31" value="is loaned" style="edgeLabel;html=1;align=center;verticalAlign=middle;resizable=0;points=[];" vertex="1" connectable="0" parent="m5UDrv521vRG6zLzDft7-29">
          <mxGeometry x="0.0286" relative="1" as="geometry">
            <mxPoint x="6" y="-2" as="offset" />
          </mxGeometry>
        </mxCell>
        <mxCell id="m5UDrv521vRG6zLzDft7-30" value="" style="edgeStyle=orthogonalEdgeStyle;rounded=0;orthogonalLoop=1;jettySize=auto;html=1;strokeColor=#000000;startSize=6;endSize=0;" edge="1" parent="1" source="m5UDrv521vRG6zLzDft7-13" target="m5UDrv521vRG6zLzDft7-25">
          <mxGeometry relative="1" as="geometry" />
        </mxCell>
        <mxCell id="m5UDrv521vRG6zLzDft7-32" value="borrows" style="edgeLabel;html=1;align=center;verticalAlign=middle;resizable=0;points=[];" vertex="1" connectable="0" parent="m5UDrv521vRG6zLzDft7-30">
          <mxGeometry x="-0.0737" relative="1" as="geometry">
            <mxPoint as="offset" />
          </mxGeometry>
        </mxCell>
        <mxCell id="m5UDrv521vRG6zLzDft7-33" value="" style="endArrow=open;endFill=1;endSize=8;html=1;rounded=0;startArrow=ERmany;startFill=0;entryX=0.463;entryY=0.001;entryDx=0;entryDy=0;entryPerimeter=0;" edge="1" parent="1" target="m5UDrv521vRG6zLzDft7-16">
          <mxGeometry width="160" relative="1" as="geometry">
            <mxPoint x="418" y="254" as="sourcePoint" />
            <mxPoint x="518" y="270" as="targetPoint" />
          </mxGeometry>
        </mxCell>
        <mxCell id="m5UDrv521vRG6zLzDft7-34" value="processes loans" style="edgeLabel;html=1;align=center;verticalAlign=middle;resizable=0;points=[];" vertex="1" connectable="0" parent="m5UDrv521vRG6zLzDft7-33">
          <mxGeometry x="0.0286" relative="1" as="geometry">
            <mxPoint x="6" y="-2" as="offset" />
          </mxGeometry>
        </mxCell>
        <mxCell id="m5UDrv521vRG6zLzDft7-35" value="Class Diagram" style="text;align=center;fontStyle=1;verticalAlign=middle;spacingLeft=3;spacingRight=3;strokeColor=none;rotatable=0;points=[[0,0.5],[1,0.5]];portConstraint=eastwest;html=1;" vertex="1" parent="1">
          <mxGeometry x="120" y="20" width="80" height="26" as="geometry" />
        </mxCell>
        <mxCell id="m5UDrv521vRG6zLzDft7-36" value="ERD" style="text;align=center;fontStyle=1;verticalAlign=middle;spacingLeft=3;spacingRight=3;strokeColor=none;rotatable=0;points=[[0,0.5],[1,0.5]];portConstraint=eastwest;html=1;" vertex="1" parent="1">
          <mxGeometry x="100" y="530" width="80" height="26" as="geometry" />
        </mxCell>
      </root>
    </mxGraphModel>
  </diagram>
</mxfile>
